<svg xmlns="http://www.w3.org/2000/svg" viewBox="0 0 220.87 220.87">
    <defs>
        <style>.cls-1{fill:#deb673;}.cls-2{fill:#cecdce;}</style>
    </defs>
    <title>Logo </title>
    <g id="Calque_2" data-name="Calque 2">
        <g id="Calque_1-2" data-name="Calque 1">
            <path class="cls-1" d="M110.44,178.1a67.64,67.64,0,0,1-57.73-32.34l7.58-4.65a58.42,58.42,0,0,0,50.15,28.1A59.47,59.47,0,0,0,122.29,168l1.78,8.71A68.35,68.35,0,0,1,110.44,178.1Z"/>
            <path class="cls-1" d="M51.66,110.44H42.77a67.74,67.74,0,0,1,67.67-67.67v8.89A58.85,58.85,0,0,0,51.66,110.44Z"/>
            <path class="cls-1" d="M168.21,99.56a59,59,0,0,0-26-38.59L147,53.49A67.92,67.92,0,0,1,177,97.93Z"/>
        </g>
    </g>
</svg>