<?xml version="1.0" encoding="utf-8"?>
<!-- Generator: Adobe Illustrator 23.0.3, SVG Export Plug-In . SVG Version: 6.00 Build 0)  -->
<svg version="1.1" id="Calque_1" xmlns="http://www.w3.org/2000/svg" xmlns:xlink="http://www.w3.org/1999/xlink" x="0px" y="0px"
	 viewBox="0 0 735.7 735.7" style="enable-background:new 0 0 735.7 735.7;" xml:space="preserve">
<style type="text/css">
	.st0{fill:none;stroke:#DEB672;stroke-width:40;stroke-miterlimit:10;}
	.st1{fill:none;stroke:#CFCECE;stroke-width:30;stroke-miterlimit:10;}
	.st2{fill:none;stroke:#DEB672;stroke-width:20;stroke-miterlimit:10;}
</style>
<path class="st0" d="M572.9,451.9c11-26.8,17.1-56.1,17.1-86.9c0-126.1-102.2-228.3-228.3-228.3S133.3,238.9,133.3,365
	s102.2,228.3,228.3,228.3"/>
<line class="st0" x1="361.7" y1="593.3" x2="492.2" y2="593.3"/>
<path class="st1" d="M200.6,285.7c-11.8,23.9-18.4,50.8-18.4,79.2c0,79.8,52.1,147.5,124.2,170.8"/>
<path class="st1" d="M488.6,491.9c32.5-32.5,52.6-77.4,52.6-126.9c0-99.1-80.4-179.5-179.5-179.5c-26.1,0-50.9,5.6-73.3,15.6"/>
<path class="st2" d="M240.4,439.2c25,40.8,70,68,121.3,68c9.8,0,19.4-1,28.7-2.9"/>
<path class="st2" d="M361.7,222.8c-78.5,0-142.2,63.7-142.2,142.2"/>
<path class="st2" d="M501.4,338.7c-7.3-39.1-30.6-72.6-62.9-93.4"/>
</svg>
